 <svg  version="1.0" xmlns="http://www.w3.org/2000/svg"  width="1500.000000pt" height="1500.000000pt" viewBox="0 0 1500.000000 1500.000000"  preserveAspectRatio="xMidYMid meet">  <g transform="translate(0.000000,1500.000000) scale(0.100000,-0.100000)" fill="#fdb927" stroke="none"> <path d="M4984 13559 c-5 -8 -7 -328 -5 -770 3 -740 3 -756 -17 -805 -34 -83 -102 -265 -124 -334 -12 -36 -28 -87 -37 -115 l-17 -50 -831 -3 c-648 -2 -833 -5 -841 -15 -5 -6 -18 -48 -27 -92 -10 -44 -24 -107 -32 -140 -7 -33 -20 -91 -28 -130 -14 -66 -24 -107 -60 -257 -8 -35 -27 -121 -41 -193 -14 -71 -34 -167 -45 -212 -10 -45 -37 -173 -60 -285 -22 -112 -47 -230 -55 -263 -33 -130 -43 -173 -58 -260 -9 -49 -21 -108 -26 -130 -29 -123 -51 -219 -65 -295 -43 -222 -58 -292 -80 -385 -27 -115 -67 -311 -69 -340 -1 -23 -31 -16 359 -91 160 -30 360 -69 445 -86 85 -17 175 -34 200 -38 58 -11 100 -27 100 -39 0 -11 -31 -93 -54 -146 -8 -16 -28 -68 -46 -115 -18 -47 -50 -128 -71 -180 -21 -52 -55 -138 -75 -190 -20 -52 -40 -100 -45 -106 -5 -5 -28 -62 -52 -125 -73 -188 -147 -371 -173 -426 -13 -28 -24 -55 -24 -58 0 -6 -78 -194 -116 -282 -8 -17 -14 -35 -14 -41 0 -5 -6 -14 -13 -21 -12 -9 -246 -66 -447 -107 -41 -9 -85 -22 -97 -30 l-23 -14 0 -724 c0 -399 3 -731 6 -740 6 -14 121 -16 1208 -16 737 0 1207 -4 1216 -10 12 -7 16 -45 20 -200 3 -105 2 -199 -2 -209 -8 -23 -111 -31 -397 -31 -113 0 -212 -4 -220 -9 -11 -7 -14 -92 -19 -457 l-5 -449 -41 -60 -41 -60 -3 -250 c-3 -282 1 -304 67 -373 66 -68 90 -72 458 -72 293 0 327 2 373 19 27 10 64 31 81 45 l31 26 1252 0 1252 0 42 -31 c76 -55 103 -59 457 -59 357 0 381 3 443 63 65 62 72 88 72 268 l0 161 30 28 c34 32 36 46 15 98 -19 45 -14 70 24 111 25 26 36 31 78 31 54 0 65 5 82 37 20 39 12 57 -44 96 -53 37 -55 40 -55 84 0 41 5 50 46 90 38 38 45 50 39 72 -11 47 -29 56 -104 53 -66 -3 -69 -2 -95 29 -25 30 -27 36 -20 99 6 67 6 68 -22 81 -26 13 -29 20 -32 71 l-3 56 46 32 c54 37 57 56 20 175 -14 44 -25 85 -25 90 0 6 18 34 39 63 22 28 41 57 43 64 3 9 41 14 128 18 96 4 124 8 130 20 17 36 33 88 39 130 l6 45 95 -2 c61 -1 117 -8 155 -20 55 -17 62 -23 81 -63 12 -25 28 -62 35 -84 14 -41 8 -56 -113 -278 -20 -38 -28 -64 -24 -80 3 -13 38 -58 79 -100 59 -64 78 -78 103 -78 16 0 34 4 39 9 20 19 217 113 248 118 24 4 49 -4 102 -32 39 -20 75 -42 82 -48 6 -7 26 -82 44 -167 17 -85 35 -160 40 -166 13 -16 119 -37 190 -38 68 -1 66 -3 130 139 76 173 86 185 141 185 21 0 55 7 75 15 64 27 80 21 215 -85 70 -55 134 -100 142 -100 15 0 140 73 185 108 23 19 23 20 8 68 -18 61 -41 140 -63 221 l-17 61 71 95 71 94 92 6 c51 4 124 7 164 7 85 0 94 7 120 95 9 33 21 73 26 89 5 16 9 35 9 42 0 11 -141 124 -154 124 -3 0 -35 21 -71 46 -64 45 -65 46 -65 92 0 26 -3 77 -6 114 l-7 68 39 37 c22 21 79 73 127 116 87 78 95 92 78 125 -5 9 -26 54 -47 100 l-39 83 -67 -3 c-38 -1 -72 2 -78 8 -7 7 -10 119 -8 342 3 378 -2 354 94 377 67 15 66 16 160 -56 76 -57 94 -58 154 -9 31 25 35 32 32 70 -1 23 -9 58 -17 77 -30 70 -17 112 57 198 5 6 57 12 115 15 l105 5 21 62 c25 74 25 74 -79 144 -77 52 -84 63 -84 149 l0 55 77 72 77 71 -26 54 c-40 80 -42 81 -150 70 -51 -6 -100 -6 -108 -2 -8 5 -33 27 -54 49 l-39 40 11 95 c7 52 9 101 6 109 -6 18 -93 57 -125 57 -15 0 -47 -24 -92 -71 -63 -64 -72 -71 -99 -65 -17 3 -46 6 -64 6 -26 0 -37 6 -45 23 -11 24 -20 40 -61 104 -15 23 -31 44 -36 47 -15 9 -126 -26 -143 -45 -12 -13 -19 -48 -24 -114 l-7 -96 -40 -30 c-23 -16 -46 -29 -52 -29 -7 0 -52 13 -101 29 -49 16 -95 27 -102 24 -22 -8 -83 -99 -83 -123 0 -12 25 -56 55 -97 30 -42 55 -84 55 -95 0 -10 -9 -36 -19 -56 -23 -45 -109 -89 -135 -68 -13 10 -88 214 -120 326 -7 25 -28 86 -46 135 -17 50 -70 205 -117 345 -47 140 -96 283 -110 317 -38 94 -35 99 90 123 35 7 60 18 66 28 5 11 -2 66 -19 152 -66 325 -82 400 -100 499 -11 58 -26 135 -35 171 -8 36 -22 101 -30 145 -8 44 -22 114 -30 155 -8 41 -19 99 -24 128 -6 29 -12 56 -15 60 -6 9 -35 154 -66 327 -11 66 -32 170 -45 230 -23 100 -63 309 -85 443 -5 29 -14 68 -20 85 -5 18 -24 104 -41 192 -42 221 -68 345 -80 376 l-10 27 -297 6 c-163 4 -303 10 -311 14 -13 7 -25 36 -74 182 -13 41 -39 115 -56 163 l-31 89 0 806 c0 444 -4 813 -8 819 -6 10 -420 14 -1898 19 -1624 6 -1892 5 -1900 -7z m3064 -727 c8 -3 12 -30 12 -87 0 -91 -1 -92 -70 -119 -62 -24 -102 -74 -108 -135 -4 -44 15 -147 38 -205 5 -11 18 -55 31 -96 12 -41 33 -106 46 -145 47 -139 61 -183 116 -355 124 -394 161 -508 184 -575 14 -38 27 -80 30 -92 l5 -22 -753 -5 c-415 -3 -779 -6 -809 -6 -85 -1 -178 11 -188 23 -6 7 -15 28 -20 47 -6 19 -22 67 -35 105 -14 39 -39 115 -57 170 -17 55 -38 114 -46 132 -8 17 -14 37 -14 44 0 7 -14 56 -31 111 -25 80 -35 98 -50 98 -14 0 -25 -12 -35 -37 -8 -21 -19 -47 -24 -58 -5 -11 -13 -36 -19 -55 -11 -40 -57 -175 -71 -205 -10 -25 -29 -80 -40 -120 -5 -16 -27 -77 -48 -135 l-40 -105 -164 -8 c-293 -15 -503 -7 -503 18 0 13 67 197 115 315 13 30 36 93 52 140 16 47 35 99 42 115 8 17 32 82 55 145 23 63 51 133 61 155 10 22 34 85 54 140 19 55 52 145 72 200 34 91 38 109 38 205 1 101 0 106 -28 143 -17 22 -48 46 -76 58 -46 20 -48 22 -54 72 -9 80 -7 125 7 131 15 6 2307 5 2325 -2z m-4233 -2049 c22 -12 54 -24 72 -27 59 -13 4740 -10 4817 3 78 13 177 52 206 81 29 29 38 25 45 -17 4 -21 10 -51 15 -68 4 -16 18 -86 30 -155 12 -69 28 -156 36 -195 9 -38 22 -99 30 -135 7 -36 25 -123 39 -195 40 -202 43 -217 53 -260 13 -54 37 -170 57 -280 16 -85 46 -239 81 -404 8 -40 13 -79 11 -85 -5 -13 -134 -39 -148 -30 -4 2 -13 21 -20 41 -20 63 -109 244 -162 333 -265 445 -602 666 -1152 756 -86 14 -168 18 -375 19 -146 0 -273 -3 -282 -7 -17 -7 -18 -59 -18 -902 0 -492 -3 -897 -8 -900 -4 -2 -41 9 -82 25 -78 32 -281 96 -410 131 -126 33 -315 69 -519 98 -127 19 -184 21 -411 18 -30 0 -93 4 -140 8 l-85 9 -5 755 -5 755 -135 6 c-360 15 -694 -17 -895 -87 -216 -76 -308 -123 -443 -225 -127 -97 -194 -168 -295 -315 -88 -128 -217 -414 -217 -482 0 -34 -25 -52 -57 -41 -16 5 -45 11 -66 14 -21 3 -40 12 -43 20 -3 8 11 92 31 187 20 95 45 218 56 273 33 164 50 248 60 290 6 22 17 72 25 110 30 137 42 191 58 265 8 41 22 104 30 140 9 36 27 124 41 195 14 72 30 148 35 170 5 22 14 67 21 100 15 83 25 92 58 56 15 -15 44 -37 66 -48z m1436 -874 c6 -8 7 -70 4 -149 -3 -74 -9 -358 -13 -630 l-8 -495 -36 -96 c-20 -53 -41 -105 -47 -117 -13 -24 -15 -59 -3 -65 4 -3 75 1 157 9 422 37 958 -9 1330 -115 61 -18 126 -36 145 -41 19 -5 58 -18 85 -28 28 -11 95 -36 150 -57 55 -20 127 -50 160 -65 194 -92 238 -113 310 -154 44 -25 83 -45 88 -46 11 0 8 41 -7 85 -7 22 -21 65 -31 95 -9 30 -27 84 -40 120 -13 36 -33 99 -45 140 -12 41 -28 93 -35 115 -27 78 -37 775 -19 1265 l9 235 148 -2 c154 -3 319 -21 423 -48 121 -31 315 -114 380 -162 17 -13 34 -23 39 -23 14 0 97 -71 175 -150 41 -41 103 -117 138 -168 69 -103 166 -292 200 -392 12 -36 36 -103 55 -150 l33 -85 47 0 c26 -1 51 -5 56 -10 5 -6 16 -35 25 -65 10 -30 21 -64 26 -75 13 -28 40 -104 50 -140 18 -67 202 -605 235 -687 11 -28 -6 -21 -53 21 -66 59 -130 63 -177 11 -15 -17 -20 -36 -19 -77 0 -64 -2 -62 189 -206 155 -118 173 -134 196 -180 28 -55 117 -329 112 -344 -3 -6 -30 -31 -61 -55 -32 -23 -61 -46 -67 -50 -5 -4 -26 -20 -45 -36 -19 -16 -75 -60 -125 -98 -49 -38 -101 -78 -115 -90 -14 -12 -38 -33 -55 -47 -27 -23 -30 -31 -30 -82 0 -50 3 -60 29 -82 25 -21 37 -24 77 -21 39 4 59 14 111 56 161 130 341 265 356 266 12 1 32 -47 82 -194 93 -277 188 -458 299 -573 61 -64 168 -127 239 -141 l57 -12 0 -94 0 -95 -1379 -3 c-1011 -1 -1382 1 -1392 9 -10 8 -14 38 -14 100 0 99 -6 93 90 102 62 6 168 57 215 103 82 82 135 199 135 297 0 34 -7 53 -32 87 -18 24 -40 52 -48 64 -81 116 -414 458 -489 500 -9 5 -23 16 -31 25 -46 45 -249 184 -369 252 -25 15 -62 36 -81 47 -61 36 -224 112 -270 127 -14 4 -29 11 -35 15 -12 8 -76 30 -160 55 -33 9 -76 23 -95 30 -84 31 -226 61 -425 92 -170 25 -595 25 -785 0 -220 -30 -426 -73 -452 -95 -9 -7 -26 -46 -39 -85 -12 -40 -35 -106 -50 -147 -15 -41 -44 -129 -65 -195 -20 -66 -40 -124 -43 -130 -6 -9 -16 -38 -58 -180 -9 -27 -21 -66 -29 -85 -57 -153 -78 -267 -78 -420 0 -127 1 -138 27 -192 44 -91 134 -149 260 -169 34 -6 66 -14 70 -18 4 -4 7 -48 5 -97 l-3 -89 -880 0 -880 0 -3 97 -3 97 28 6 c44 10 163 65 223 104 111 71 281 280 346 426 12 28 36 82 54 120 18 39 41 95 52 125 11 30 39 105 63 165 47 121 117 310 166 450 17 50 37 104 44 120 7 17 27 71 45 120 17 50 44 122 60 160 15 39 49 129 75 200 25 72 53 146 60 165 8 19 24 66 36 103 12 37 26 70 30 73 5 3 9 12 9 21 0 8 6 29 14 46 33 77 166 441 166 455 0 5 12 36 26 68 14 32 36 90 49 128 34 99 54 153 64 174 13 25 38 90 52 137 6 22 32 90 56 150 24 61 48 126 53 145 9 39 111 311 141 378 18 41 20 42 66 43 27 1 62 5 78 10 45 12 135 5 146 -12z m4120 -2211 c35 -29 105 -84 155 -123 320 -246 536 -419 545 -437 6 -11 8 -25 6 -33 -3 -7 -72 -65 -154 -128 -81 -64 -249 -196 -373 -293 -124 -97 -235 -181 -248 -187 -18 -8 -26 -7 -38 5 -27 27 -8 53 98 135 55 43 160 124 232 180 72 57 186 145 253 195 67 51 122 98 123 105 0 11 -74 72 -300 249 -63 50 -167 131 -230 180 -63 50 -129 101 -147 114 -36 26 -46 45 -38 71 11 32 48 21 116 -33z m1944 -143 c193 -95 315 -329 270 -517 -47 -191 -150 -306 -331 -368 -155 -54 -353 -1 -477 127 -202 207 -165 551 75 717 92 63 146 77 283 73 109 -3 126 -6 180 -32z m-5460 -254 c33 -6 114 -15 180 -21 66 -6 136 -15 155 -20 19 -5 69 -16 110 -26 80 -17 326 -96 369 -118 14 -7 111 -55 215 -107 104 -52 206 -107 227 -122 l39 -29 0 -163 c0 -147 -2 -163 -17 -167 -10 -3 -94 -6 -188 -7 -93 -1 -177 -7 -186 -12 -12 -6 -19 -24 -21 -52 l-3 -42 -405 0 -405 0 -3 25 c-9 75 -47 101 -112 78 -20 -6 -67 -8 -128 -4 -53 4 -114 7 -134 7 -20 0 -40 4 -43 9 -11 18 -5 753 6 766 6 8 22 11 37 8 15 -3 38 -1 52 5 28 12 164 8 255 -8z m4670 -357 c21 -8 55 -80 55 -116 0 -26 -34 -58 -48 -44 -3 4 -16 38 -29 77 -27 84 -23 100 22 83z m312 -355 c53 -30 63 -39 63 -60 0 -28 -12 -30 -112 -19 -150 17 -158 25 -67 71 65 34 68 35 116 8z m-4997 -149 c5 -10 10 -32 10 -49 0 -20 7 -34 19 -41 11 -6 90 -10 183 -10 114 0 168 -4 176 -12 18 -18 17 -218 -2 -218 -7 0 -19 14 -26 30 -7 17 -35 51 -63 75 -64 56 -152 81 -225 64 -134 -32 -220 -136 -222 -267 0 -92 45 -168 136 -229 52 -35 60 -37 135 -36 77 0 83 2 137 39 30 22 69 60 86 86 52 79 57 69 54 -119 l-3 -168 -30 0 c-29 0 -30 1 -35 57 -3 31 -8 60 -12 64 -4 4 -136 6 -293 5 -181 0 -294 3 -306 9 -18 10 -19 25 -19 366 l0 355 23 8 c12 5 77 9 144 10 111 0 124 -2 133 -19z m1266 5 l24 -15 0 -343 c0 -198 -4 -348 -10 -357 -8 -13 -56 -15 -320 -16 -216 -1 -315 -5 -323 -13 -6 -6 -14 -32 -17 -58 -4 -35 -10 -49 -22 -51 -17 -3 -18 11 -17 185 0 152 3 183 12 163 68 -143 191 -218 317 -191 108 23 183 98 213 211 12 48 12 63 -2 120 -13 56 -22 71 -72 121 -50 50 -64 58 -125 73 -62 14 -75 15 -123 2 -62 -17 -122 -54 -148 -92 -10 -14 -25 -34 -34 -44 -9 -9 -20 -30 -25 -46 -7 -21 -10 4 -12 95 -2 82 1 128 9 137 9 11 49 14 185 14 186 0 190 1 186 52 -4 54 21 65 158 67 96 1 127 -1 146 -14z m-751 -485 c0 -359 -1 -375 -19 -378 -10 -2 -22 2 -27 10 -5 7 -9 173 -9 369 0 366 2 384 40 377 13 -3 15 -51 15 -378z m-297 243 c141 -87 151 -260 22 -363 -35 -28 -43 -30 -123 -30 l-85 0 -50 48 c-36 34 -54 59 -62 92 -27 103 14 207 102 255 35 20 163 18 196 -2z m772 -20 c53 -45 80 -102 80 -168 0 -67 -28 -124 -82 -168 -44 -36 -48 -37 -125 -37 -72 0 -84 3 -120 29 -67 48 -87 91 -86 182 1 69 4 82 29 115 50 65 88 83 180 83 79 1 81 0 124 -36z m-720 -543 c6 -11 10 -44 8 -73 l-3 -52 -335 -3 c-184 -1 -345 0 -357 3 -21 5 -23 12 -23 63 0 32 5 63 12 70 9 9 100 12 350 12 329 0 338 -1 348 -20z m1140 0 c6 -11 10 -44 8 -73 l-3 -52 -365 0 -365 0 -3 58 c-2 35 2 64 9 73 9 12 72 14 360 14 340 0 349 0 359 -20z m-845 -305 l0 -170 -72 -3 c-64 -3 -73 -1 -83 18 -15 27 -11 312 4 323 6 4 43 6 81 5 l70 -3 0 -170z m-455 109 c13 -3 15 -53 13 -380 -2 -208 -5 -379 -7 -382 -9 -8 -440 -7 -453 1 -10 6 -13 94 -13 382 l0 375 23 5 c57 13 390 12 437 -1z m225 -379 l0 -390 -65 0 -65 0 -3 380 c-1 209 0 386 3 393 3 9 23 12 67 10 l63 -3 0 -390z m443 383 c14 -14 17 -744 3 -766 -5 -9 -27 -12 -72 -10 l-64 3 -3 384 c-2 301 1 386 10 393 20 12 113 9 126 -4z m528 -7 c5 -6 8 -158 6 -386 l-2 -375 -228 2 -227 3 -3 370 c-1 203 0 376 3 382 5 16 435 19 451 4z m-733 -357 c3 -3 3 -12 0 -20 -4 -10 -26 -14 -89 -14 -77 0 -84 2 -84 20 0 18 7 20 83 20 46 0 86 -3 90 -6z m-5 -258 l-3 -141 -77 -3 c-94 -3 -91 -9 -86 164 l3 119 70 5 c39 3 76 3 83 1 10 -2 12 -37 10 -145z m2141 66 c23 -43 -76 -206 -166 -273 -95 -70 -153 -94 -266 -110 -101 -15 -221 1 -237 31 -6 10 -10 91 -10 179 0 132 3 162 16 175 13 14 58 16 334 16 297 0 320 -1 329 -18z m2344 -13 c22 -36 -110 -230 -210 -310 -65 -51 -158 -109 -174 -109 -6 0 -23 -6 -37 -14 -80 -42 -125 -50 -282 -51 -151 0 -157 1 -250 34 -111 39 -236 119 -307 194 -85 90 -174 240 -158 266 4 8 208 10 707 9 626 -3 702 -5 711 -19z m-5302 -279 c17 -10 19 -22 19 -119 0 -116 -3 -123 -54 -135 -16 -4 -52 -31 -81 -61 -41 -41 -55 -65 -65 -105 -21 -86 3 -171 65 -233 31 -31 49 -42 108 -66 28 -11 28 -11 25 -93 l-3 -83 -170 0 -170 0 -3 425 c-1 234 0 435 3 447 5 22 10 23 153 26 81 1 148 4 150 5 2 1 12 -3 23 -8z m1387 -109 c3 -122 -1 -135 -46 -144 -15 -3 -44 -20 -65 -38 -106 -88 -126 -216 -50 -330 24 -36 94 -89 118 -89 41 0 45 -10 45 -101 l0 -89 -642 0 c-354 0 -649 4 -656 9 -9 5 -12 29 -10 82 3 81 -6 69 92 116 87 41 140 165 116 272 -10 45 -22 64 -65 107 -29 29 -66 56 -81 60 -57 13 -64 28 -64 133 0 96 4 115 28 122 6 2 297 4 645 4 l632 0 3 -114z m417 -342 l0 -444 -175 0 -175 0 -3 75 c-3 67 -1 77 19 93 11 9 28 17 35 17 29 0 94 54 126 102 29 46 32 58 32 129 0 73 -3 82 -35 129 -34 51 -90 91 -141 104 -35 8 -40 27 -36 146 l3 95 150 5 c83 3 161 2 175 -1 l25 -5 0 -445z m-1668 140 c141 -68 142 -264 3 -335 -74 -38 -158 -25 -216 33 -149 148 25 393 213 302z m1369 0 c23 -11 55 -37 71 -57 25 -33 28 -45 28 -113 0 -67 -3 -80 -27 -111 -82 -107 -246 -99 -313 16 -94 160 75 346 241 265z m-1896 -218 c15 -29 13 -344 -2 -359 -8 -8 -45 -12 -101 -12 -106 0 -127 -9 -127 -53 0 -61 4 -60 -251 -58 -158 2 -238 6 -247 14 -33 27 19 187 87 271 71 89 239 172 391 195 174 26 236 26 250 2z m2525 -2 c67 -11 194 -52 240 -78 107 -59 192 -157 225 -260 23 -75 25 -114 6 -130 -9 -8 -84 -11 -252 -9 l-239 3 -6 39 c-9 56 -28 66 -129 66 -54 0 -91 5 -98 12 -16 16 -17 330 -1 360 10 19 17 20 103 14 50 -4 118 -12 151 -17z m840 -222 c30 -41 55 -117 55 -172 0 -75 -45 -185 -76 -185 -27 0 -34 41 -34 214 0 194 5 207 55 143z m-937 -219 c9 -9 12 -88 12 -293 0 -205 -3 -284 -12 -293 -16 -16 -140 -16 -156 0 -8 8 -12 60 -12 169 0 130 -3 160 -16 173 -14 14 -129 16 -1113 16 -952 0 -1100 -2 -1111 -15 -8 -10 -11 -60 -11 -169 2 -186 2 -186 -100 -186 -65 0 -70 2 -79 26 -14 35 -13 540 0 565 11 19 36 19 1298 19 989 0 1291 -3 1300 -12z m-2715 -109 c24 -6 41 -18 47 -33 4 -12 8 -125 8 -249 0 -230 3 -257 38 -257 19 0 33 -31 27 -63 -8 -39 -71 -102 -121 -121 -35 -13 -91 -16 -342 -16 -321 0 -366 6 -418 54 -55 49 -57 63 -57 316 0 208 2 240 19 277 19 43 61 80 105 93 40 13 650 12 694 -1z m3514 -11 c18 -10 45 -34 60 -55 l28 -36 3 -233 c4 -258 -2 -296 -50 -343 -59 -58 -91 -62 -434 -59 -307 3 -309 3 -359 28 -57 29 -97 86 -93 135 3 28 6 30 50 35 26 3 55 13 66 23 16 15 55 17 363 19 l344 3 3 23 c2 12 2 23 0 24 -2 1 -160 5 -353 8 l-350 5 -3 48 c-3 43 -1 48 24 57 16 6 153 10 352 10 196 -1 329 3 335 9 28 28 -11 31 -347 31 -253 0 -345 3 -354 12 -7 7 -12 31 -12 55 l0 43 343 0 c360 0 389 3 374 43 -6 15 -44 17 -359 19 l-353 3 -3 45 c-5 73 -13 71 363 68 292 -3 334 -5 362 -20z m-1449 -242 c3 -67 -8 -103 -45 -138 l-25 -23 -580 0 -580 0 -29 33 c-26 29 -29 39 -29 105 0 41 3 77 7 80 3 4 293 6 642 5 l636 -3 3 -59z"/> <path d="M9071 8153 c-16 -17 -46 -77 -75 -153 -26 -69 -54 -140 -62 -158 -8 -18 -14 -39 -14 -47 0 -9 -4 -23 -10 -33 -16 -30 -50 -111 -50 -121 0 -5 -6 -22 -14 -38 -30 -59 -124 -297 -156 -393 -12 -36 -26 -69 -31 -75 -5 -5 -9 -18 -9 -30 0 -12 -4 -25 -8 -30 -5 -6 -17 -32 -27 -60 -10 -27 -26 -70 -37 -95 -31 -73 -35 -83 -58 -140 -11 -30 -25 -64 -30 -75 -8 -19 -51 -134 -91 -245 -22 -58 -46 -122 -60 -155 -4 -11 -10 -33 -12 -50 -3 -16 -10 -44 -17 -60 -11 -26 -10 -36 4 -67 29 -61 127 -80 168 -33 19 22 109 238 125 300 4 19 25 67 44 107 5 10 9 23 9 28 0 10 13 42 50 125 5 11 22 54 39 95 68 173 101 260 101 270 0 5 6 24 14 42 8 18 21 49 30 70 9 20 16 41 16 47 0 6 4 19 10 29 13 24 35 77 60 142 11 30 25 64 30 75 5 11 26 63 46 115 20 52 46 122 59 155 13 33 33 89 45 125 13 36 26 69 31 75 5 5 9 15 9 23 0 8 14 44 31 80 27 60 30 71 20 104 -16 51 -53 78 -108 78 -35 0 -50 -6 -72 -27z m103 -61 c6 -19 -1 -47 -32 -127 -33 -84 -223 -577 -242 -625 -9 -25 -26 -67 -38 -95 -11 -27 -36 -90 -55 -140 -46 -122 -115 -301 -133 -350 -9 -22 -22 -53 -29 -70 -7 -16 -20 -50 -30 -75 -10 -25 -21 -54 -26 -65 -5 -11 -40 -103 -79 -205 -63 -163 -87 -210 -110 -210 -3 0 -15 6 -25 14 -18 13 -18 15 -2 55 9 22 24 60 33 84 9 23 22 56 29 72 7 17 25 63 39 103 14 41 35 95 45 120 11 26 40 101 66 167 25 66 59 152 75 190 16 39 42 106 59 150 74 195 142 373 170 440 5 11 16 40 26 65 9 25 22 56 27 70 6 14 44 113 85 220 41 107 82 203 90 213 21 22 50 22 57 -1z"/> <path d="M8244 7823 c-21 -4 -145 -102 -219 -172 -62 -60 -287 -232 -320 -247 -16 -7 -71 -46 -122 -87 -51 -41 -108 -86 -127 -102 -42 -33 -60 -73 -51 -114 7 -34 36 -66 114 -125 29 -22 68 -52 86 -66 18 -14 70 -54 116 -90 46 -35 89 -70 96 -76 24 -23 240 -184 248 -184 4 0 37 -26 74 -59 78 -69 99 -81 141 -81 44 0 67 15 88 59 16 33 17 42 6 75 -7 20 -19 42 -26 49 -30 28 -130 108 -233 187 -60 47 -117 90 -125 97 -55 45 -182 145 -229 181 -31 24 -57 47 -59 51 -1 5 41 43 95 86 54 42 101 83 105 90 11 18 130 111 176 136 38 22 231 168 262 199 9 9 25 32 34 50 15 32 15 37 -1 77 -12 29 -28 48 -50 58 -31 15 -40 16 -79 8z m58 -88 c14 -32 0 -48 -130 -148 -51 -40 -131 -101 -176 -137 -46 -36 -144 -112 -217 -169 -154 -120 -189 -151 -189 -165 1 -6 46 -45 101 -86 55 -41 107 -81 117 -90 15 -13 100 -81 217 -170 176 -135 276 -218 281 -233 4 -11 -1 -26 -10 -36 -25 -24 -27 -23 -396 269 -63 50 -176 137 -250 194 -74 57 -143 113 -154 125 -28 31 -13 60 61 116 36 28 82 64 103 80 21 17 82 64 136 105 53 41 102 80 108 85 10 10 42 35 273 213 51 39 98 72 104 72 5 0 15 -11 21 -25z"/> <path d="M5915 6203 c-67 -17 -145 -111 -145 -174 0 -62 14 -94 62 -141 l49 -48 79 0 79 0 51 50 50 51 0 74 0 74 -49 50 c-65 66 -106 81 -176 64z m133 -97 c34 -32 37 -38 37 -91 0 -53 -3 -59 -37 -91 -33 -29 -45 -34 -88 -34 -43 0 -55 5 -88 34 -34 32 -37 39 -37 90 0 49 4 59 34 90 31 32 40 36 88 36 47 0 58 -4 91 -34z"/> <path d="M6652 6199 c-19 -6 -53 -30 -76 -54 -47 -48 -62 -100 -50 -177 10 -58 79 -124 136 -130 55 -5 131 6 136 21 2 6 9 11 16 11 30 0 76 92 76 151 0 62 -56 141 -120 168 -53 23 -68 24 -118 10z m142 -99 c30 -34 36 -47 36 -86 0 -41 -5 -51 -40 -86 -39 -39 -42 -40 -95 -36 -65 5 -99 32 -116 89 -15 48 2 99 42 134 24 20 41 25 84 25 49 0 55 -3 89 -40z"/> <path d="M4203 3394 c-15 -40 14 -44 367 -44 353 0 382 4 367 44 -6 14 -42 16 -367 16 -325 0 -361 -2 -367 -16z"/> <path d="M4203 3225 c-3 -9 -3 -18 0 -21 6 -6 728 -6 735 0 2 3 2 12 -1 21 -6 13 -51 15 -367 15 -316 0 -361 -2 -367 -15z"/> <path d="M4218 3069 c-22 -13 -23 -35 -2 -43 9 -3 167 -6 353 -6 277 0 341 3 357 14 16 12 17 17 6 28 -17 17 -687 24 -714 7z"/> <path d="M4203 2895 c-3 -9 -2 -19 2 -23 9 -9 695 -9 717 0 11 4 15 13 12 23 -5 13 -51 15 -365 15 -315 0 -360 -2 -366 -15z"/> <path d="M7690 2900 c-12 -7 -12 -12 -2 -22 10 -10 90 -13 362 -13 348 0 385 3 366 34 -9 14 -704 15 -726 1z"/> </g> </svg> 