 <svg  version="1.0" xmlns="http://www.w3.org/2000/svg"  width="1500.000000pt" height="1500.000000pt" viewBox="0 0 1500.000000 1500.000000"  preserveAspectRatio="xMidYMid meet">  <g transform="translate(0.000000,1500.000000) scale(0.100000,-0.100000)" fill="#fdb927" stroke="none"> <path d="M4984 13559 c-5 -8 -7 -328 -5 -770 3 -740 3 -756 -17 -805 -34 -83 -102 -265 -124 -334 -12 -36 -28 -87 -37 -115 l-17 -50 -831 -3 c-648 -2 -833 -5 -841 -15 -5 -6 -18 -48 -27 -92 -10 -44 -24 -107 -32 -140 -7 -33 -20 -91 -28 -130 -14 -66 -24 -107 -60 -257 -8 -35 -27 -121 -41 -193 -14 -71 -34 -167 -45 -212 -10 -45 -37 -173 -60 -285 -22 -112 -47 -230 -55 -263 -33 -130 -43 -173 -58 -260 -9 -49 -21 -108 -26 -130 -29 -123 -51 -219 -65 -295 -43 -222 -58 -292 -80 -385 -27 -115 -67 -311 -69 -340 -1 -23 -31 -16 359 -91 160 -30 360 -69 445 -86 85 -17 175 -34 200 -38 58 -11 100 -27 100 -39 0 -11 -31 -93 -54 -146 -8 -16 -28 -68 -46 -115 -18 -47 -50 -128 -71 -180 -21 -52 -55 -138 -75 -190 -20 -52 -40 -100 -45 -106 -5 -5 -28 -62 -52 -125 -73 -188 -147 -371 -173 -426 -13 -28 -24 -55 -24 -58 0 -6 -78 -194 -116 -282 -8 -17 -14 -35 -14 -41 0 -5 -6 -14 -13 -21 -12 -9 -246 -66 -447 -107 -41 -9 -85 -22 -97 -30 l-23 -14 0 -724 c0 -399 3 -731 6 -740 6 -14 121 -16 1208 -16 737 0 1207 -4 1216 -10 12 -7 16 -45 20 -200 3 -105 2 -199 -2 -209 -8 -23 -111 -31 -397 -31 -113 0 -212 -4 -219 -9 -11 -7 -15 -90 -19 -417 l-5 -409 -27 -35 c-59 -78 -60 -85 -61 -348 0 -264 2 -279 58 -350 16 -21 32 -45 35 -54 4 -11 17 -18 34 -19 115 -3 4258 -4 4296 -1 42 4 47 7 47 29 0 13 14 47 30 76 29 52 30 58 30 176 l0 123 30 28 c34 32 36 46 15 98 -19 45 -14 70 24 111 25 26 36 31 78 31 54 0 65 5 82 37 20 39 12 57 -44 96 -53 37 -55 40 -55 84 0 41 5 50 46 90 38 38 45 50 39 72 -11 47 -29 56 -104 53 -66 -3 -69 -2 -95 29 -25 30 -27 36 -20 99 6 67 6 68 -22 81 -26 13 -29 20 -32 71 l-3 56 46 32 c54 37 57 56 20 175 -14 44 -25 85 -25 90 0 6 18 34 39 63 22 28 41 57 43 64 3 9 41 14 128 18 96 4 124 8 130 20 17 36 33 88 39 130 l6 45 95 -2 c61 -1 117 -8 155 -20 55 -17 62 -23 81 -63 12 -25 28 -62 35 -84 14 -41 8 -56 -113 -278 -20 -38 -28 -64 -24 -80 3 -13 38 -58 79 -100 59 -64 78 -78 103 -78 16 0 34 4 39 9 20 19 217 113 248 118 24 4 49 -4 102 -32 39 -20 75 -42 82 -48 6 -7 26 -82 44 -167 17 -85 35 -160 40 -166 13 -16 119 -37 190 -38 68 -1 66 -3 130 139 76 173 86 185 141 185 21 0 55 7 75 15 64 27 80 21 215 -85 70 -55 134 -100 142 -100 15 0 140 73 185 108 23 19 23 20 8 68 -18 61 -41 140 -63 221 l-17 61 71 95 71 94 92 6 c51 4 124 7 164 7 85 0 94 7 120 95 9 33 21 73 26 89 5 16 9 35 9 42 0 11 -141 124 -154 124 -3 0 -35 21 -71 46 -64 45 -65 46 -65 92 0 26 -3 77 -6 114 l-7 68 39 37 c22 21 79 73 127 116 87 78 95 92 78 125 -5 9 -26 54 -47 100 l-39 83 -67 -3 c-38 -1 -72 2 -78 8 -7 7 -10 119 -8 342 3 378 -2 354 94 377 67 15 66 16 160 -56 76 -57 94 -58 154 -9 31 25 35 32 32 70 -1 23 -9 58 -17 77 -30 70 -17 112 57 198 5 6 57 12 115 15 l105 5 21 62 c25 74 25 74 -79 144 -77 52 -84 63 -84 149 l0 55 77 72 77 71 -26 54 c-40 80 -42 81 -150 70 -51 -6 -100 -6 -108 -2 -8 5 -33 27 -54 49 l-39 40 11 95 c7 52 9 101 6 109 -6 18 -93 57 -125 57 -15 0 -47 -24 -92 -71 -63 -64 -72 -71 -99 -65 -17 3 -46 6 -64 6 -26 0 -37 6 -45 23 -11 24 -20 40 -61 104 -15 23 -31 44 -36 47 -15 9 -126 -26 -143 -45 -12 -13 -19 -48 -24 -114 l-7 -96 -40 -30 c-23 -16 -46 -29 -52 -29 -7 0 -52 13 -101 29 -49 16 -95 27 -102 24 -22 -8 -83 -99 -83 -123 0 -12 25 -56 55 -97 30 -42 55 -84 55 -95 0 -10 -9 -36 -19 -56 -23 -45 -109 -89 -135 -68 -13 10 -88 214 -120 326 -7 25 -28 86 -46 135 -17 50 -70 205 -117 345 -47 140 -96 283 -110 317 -38 94 -35 99 90 123 35 7 60 18 66 28 5 11 -2 66 -19 152 -66 325 -82 400 -100 499 -11 58 -26 135 -35 171 -8 36 -22 101 -30 145 -8 44 -22 114 -30 155 -8 41 -19 99 -24 128 -6 29 -12 56 -15 60 -6 9 -35 154 -66 327 -11 66 -32 170 -45 230 -23 100 -63 309 -85 443 -5 29 -14 68 -20 85 -5 18 -24 104 -41 192 -42 221 -68 345 -80 376 l-10 27 -297 6 c-163 4 -303 10 -311 14 -13 7 -25 36 -74 182 -13 41 -39 115 -56 163 l-31 89 0 806 c0 444 -4 813 -8 819 -6 10 -420 14 -1898 19 -1624 6 -1892 5 -1900 -7z m3064 -727 c8 -3 12 -30 12 -87 0 -91 -1 -92 -70 -119 -62 -24 -102 -74 -108 -135 -4 -44 15 -147 38 -205 5 -11 18 -55 31 -96 12 -41 33 -106 46 -145 47 -139 61 -183 116 -355 124 -394 161 -508 184 -575 14 -38 27 -80 30 -92 l5 -22 -753 -5 c-415 -3 -779 -6 -809 -6 -85 -1 -178 11 -188 23 -6 7 -15 28 -20 47 -6 19 -22 67 -35 105 -14 39 -39 115 -57 170 -17 55 -38 114 -46 132 -8 17 -14 37 -14 44 0 7 -14 56 -31 111 -25 80 -35 98 -50 98 -14 0 -25 -12 -35 -37 -8 -21 -19 -47 -24 -58 -5 -11 -13 -36 -19 -55 -11 -40 -57 -175 -71 -205 -10 -25 -29 -80 -40 -120 -5 -16 -27 -77 -48 -135 l-40 -105 -164 -8 c-293 -15 -503 -7 -503 18 0 13 67 197 115 315 13 30 36 93 52 140 16 47 35 99 42 115 8 17 32 82 55 145 23 63 51 133 61 155 10 22 34 85 54 140 19 55 52 145 72 200 34 91 38 109 38 205 1 101 0 106 -28 143 -17 22 -48 46 -76 58 -46 20 -48 22 -54 72 -9 80 -7 125 7 131 15 6 2307 5 2325 -2z m-4233 -2049 c22 -12 54 -24 72 -27 59 -13 4740 -10 4817 3 78 13 177 52 206 81 29 29 38 25 45 -17 4 -21 10 -51 15 -68 4 -16 18 -86 30 -155 12 -69 28 -156 36 -195 9 -38 22 -99 30 -135 7 -36 25 -123 39 -195 40 -202 43 -217 53 -260 13 -54 37 -170 57 -280 16 -85 46 -239 81 -404 8 -40 13 -79 11 -85 -5 -13 -134 -39 -148 -30 -4 2 -13 21 -20 41 -20 63 -109 244 -162 333 -265 445 -602 666 -1152 756 -86 14 -168 18 -375 19 -146 0 -273 -3 -282 -7 -17 -7 -18 -59 -18 -902 0 -492 -3 -897 -8 -900 -4 -2 -41 9 -82 25 -78 32 -281 96 -410 131 -126 33 -315 69 -519 98 -127 19 -184 21 -411 18 -30 0 -93 4 -140 8 l-85 9 -5 755 -5 755 -135 6 c-360 15 -694 -17 -895 -87 -216 -76 -308 -123 -443 -225 -127 -97 -194 -168 -295 -315 -88 -128 -217 -414 -217 -482 0 -34 -25 -52 -57 -41 -16 5 -45 11 -66 14 -21 3 -40 12 -43 20 -3 8 11 92 31 187 20 95 45 218 56 273 33 164 50 248 60 290 6 22 17 72 25 110 30 137 42 191 58 265 8 41 22 104 30 140 9 36 27 124 41 195 14 72 30 148 35 170 5 22 14 67 21 100 15 83 25 92 58 56 15 -15 44 -37 66 -48z m1436 -874 c6 -8 7 -70 4 -149 -3 -74 -9 -358 -13 -630 l-8 -495 -36 -96 c-20 -53 -41 -105 -47 -117 -13 -24 -15 -59 -3 -65 4 -3 75 1 157 9 422 37 958 -9 1330 -115 61 -18 126 -36 145 -41 19 -5 60 -19 90 -31 30 -11 63 -23 73 -26 9 -3 17 -9 17 -13 0 -10 -121 -127 -180 -174 -25 -19 -74 -53 -110 -75 -36 -22 -105 -73 -155 -114 -171 -143 -166 -138 -172 -190 -4 -33 -1 -54 10 -71 9 -13 14 -26 11 -28 -2 -3 -35 1 -72 8 -248 49 -344 58 -617 58 -209 1 -301 -3 -405 -17 -220 -30 -426 -73 -452 -95 -9 -7 -26 -46 -39 -85 -12 -40 -35 -106 -50 -147 -15 -41 -44 -129 -65 -195 -20 -66 -40 -124 -43 -130 -6 -9 -16 -38 -58 -180 -9 -27 -21 -66 -29 -85 -57 -153 -78 -267 -78 -420 0 -127 1 -138 27 -192 44 -91 134 -149 260 -169 34 -6 66 -14 70 -18 4 -4 7 -48 5 -97 l-3 -89 -880 0 -880 0 -3 97 -3 97 28 6 c44 10 163 65 223 104 111 71 281 280 346 426 12 28 36 82 54 120 18 39 41 95 52 125 11 30 39 105 63 165 47 121 117 310 166 450 17 50 37 104 44 120 7 17 27 71 45 120 17 50 44 122 60 160 15 39 49 129 75 200 25 72 53 146 60 165 8 19 24 66 36 103 12 37 26 70 30 73 5 3 9 12 9 21 0 8 6 29 14 46 33 77 166 441 166 455 0 5 12 36 26 68 14 32 36 90 49 128 34 99 54 153 64 174 13 25 38 90 52 137 6 22 32 90 56 150 24 61 48 126 53 145 9 39 111 311 141 378 18 41 20 42 66 43 27 1 62 5 78 10 45 12 135 5 146 -12z m2562 -14 c132 -19 201 -36 323 -84 113 -44 176 -75 220 -108 17 -13 34 -23 39 -23 14 0 97 -71 175 -150 41 -41 103 -117 138 -168 69 -103 166 -292 200 -392 12 -36 36 -103 55 -150 l33 -85 47 0 c26 -1 51 -5 56 -10 5 -6 16 -35 25 -65 10 -30 21 -64 26 -75 13 -28 40 -104 49 -140 5 -16 30 -91 55 -165 26 -74 58 -173 72 -219 13 -46 29 -91 34 -101 11 -20 109 -306 150 -435 16 -49 41 -128 57 -175 17 -47 49 -141 72 -210 23 -69 45 -132 50 -140 4 -8 25 -69 45 -135 21 -66 48 -149 62 -185 13 -36 41 -119 62 -185 65 -202 179 -413 281 -518 61 -64 168 -127 239 -141 l57 -12 0 -94 0 -95 -1379 -3 c-1011 -1 -1382 1 -1392 9 -10 8 -14 38 -14 100 0 99 -6 93 90 102 62 6 168 57 215 103 82 82 135 199 135 297 0 33 -7 54 -32 88 -17 24 -34 46 -37 49 -4 3 -22 25 -41 50 -37 49 -141 165 -244 274 -69 73 -75 88 -51 139 8 18 30 77 50 132 39 107 60 162 81 212 8 17 14 37 14 45 0 8 4 18 8 24 5 5 17 41 27 79 10 39 21 75 25 80 4 6 24 57 45 115 21 58 48 121 61 141 13 19 37 72 53 118 16 45 32 85 35 88 3 4 6 13 6 21 0 8 6 28 14 45 8 18 24 55 36 82 11 28 25 58 30 67 6 10 10 23 10 28 0 6 9 32 21 58 11 26 24 56 28 67 5 11 14 34 21 50 7 17 19 48 26 70 7 22 22 65 34 95 43 112 50 136 50 175 -1 74 -67 122 -140 102 -48 -12 -76 -41 -96 -96 -9 -25 -20 -54 -25 -63 -5 -10 -9 -23 -9 -28 0 -10 -19 -57 -50 -125 -5 -11 -19 -45 -30 -75 -11 -30 -24 -64 -29 -75 -37 -84 -67 -166 -86 -237 -12 -45 -32 -108 -45 -138 -12 -30 -26 -68 -31 -85 -5 -16 -18 -46 -29 -65 -37 -67 -60 -122 -60 -141 0 -25 -43 -131 -68 -166 -11 -16 -22 -39 -26 -53 -4 -14 -14 -42 -22 -62 -8 -21 -21 -57 -30 -80 -9 -24 -23 -57 -30 -75 -8 -17 -14 -36 -14 -42 0 -6 -4 -19 -10 -29 -20 -37 -50 -112 -50 -126 0 -28 -41 -17 -89 22 -25 22 -113 89 -195 151 -82 62 -156 119 -164 128 -8 8 -70 56 -136 106 -117 88 -145 111 -210 170 -30 26 -30 28 -12 42 11 8 31 25 45 38 14 12 62 50 106 83 44 34 110 90 147 125 36 35 85 75 108 89 22 14 67 42 99 63 l59 38 64 -30 c36 -17 69 -31 73 -31 5 0 16 -6 24 -14 16 -14 166 -96 176 -96 9 0 5 44 -9 85 -7 22 -21 65 -31 95 -9 30 -30 91 -45 135 -15 44 -36 107 -45 140 -10 33 -24 78 -31 100 -15 49 -28 418 -27 775 1 288 12 698 19 719 4 12 30 13 154 7 82 -3 196 -13 253 -21z m456 -1234 c19 -12 10 -75 -23 -154 -14 -34 -41 -105 -61 -157 -20 -52 -50 -129 -67 -170 -32 -80 -34 -85 -101 -260 -122 -318 -141 -367 -152 -395 -7 -16 -19 -48 -28 -70 -23 -61 -48 -127 -62 -160 -11 -28 -30 -77 -152 -395 -65 -171 -68 -178 -103 -265 -61 -153 -79 -175 -115 -139 -11 11 -14 25 -10 43 6 27 86 242 109 296 23 53 147 371 270 695 32 82 49 127 62 155 26 61 57 140 106 274 27 75 59 159 70 186 46 115 81 202 95 240 9 22 19 49 24 60 4 11 18 45 29 75 44 110 54 131 69 140 20 12 23 12 40 1z m-939 -411 c14 -26 -14 -54 -180 -183 -130 -101 -139 -108 -410 -320 -158 -124 -200 -161 -200 -176 0 -4 37 -36 82 -72 45 -35 105 -82 133 -104 27 -22 91 -72 140 -110 50 -38 106 -83 126 -99 20 -17 78 -62 129 -101 134 -101 180 -144 180 -170 0 -26 -23 -38 -54 -29 -12 4 -61 39 -111 78 -49 40 -144 114 -210 166 -525 411 -535 420 -535 445 0 25 49 71 185 174 90 69 434 339 564 443 102 82 141 96 161 58z m3985 -695 c193 -95 315 -329 270 -517 -47 -191 -150 -306 -331 -368 -155 -54 -353 -1 -477 127 -202 207 -165 551 75 717 92 63 146 77 283 73 109 -3 126 -6 180 -32z m-5460 -254 c33 -6 114 -15 180 -21 66 -6 136 -15 155 -20 19 -5 69 -16 110 -26 86 -19 331 -98 369 -119 14 -8 49 -24 76 -36 123 -53 315 -154 373 -197 l32 -24 0 -129 0 -129 -186 0 c-109 0 -193 -4 -205 -10 -13 -7 -19 -21 -19 -43 0 -18 -4 -37 -8 -44 -5 -8 -108 -11 -392 -11 -212 0 -393 2 -402 5 -11 3 -18 14 -18 28 0 13 -5 36 -10 51 l-10 27 -91 -8 c-50 -3 -139 -3 -200 0 l-109 8 0 341 c0 244 3 345 11 353 7 7 24 10 38 7 14 -3 37 -1 51 5 28 12 164 8 255 -8z m4670 -357 c21 -8 55 -80 55 -116 0 -26 -34 -58 -47 -44 -3 3 -16 36 -29 73 -30 85 -25 104 21 87z m312 -355 c53 -30 63 -39 63 -60 0 -28 -12 -30 -112 -19 -150 17 -158 25 -67 71 65 34 68 35 116 8z m-4987 -109 c0 -29 5 -42 19 -50 11 -6 90 -10 183 -10 114 0 168 -4 176 -12 8 -8 12 -48 12 -115 0 -119 -8 -127 -55 -56 -42 65 -91 101 -163 119 -56 14 -68 14 -123 0 -233 -59 -284 -349 -86 -484 35 -24 92 -42 142 -43 97 -4 217 70 248 154 3 9 13 17 22 17 13 0 15 -21 13 -167 l-3 -168 -30 0 c-29 0 -30 1 -33 55 -2 30 -8 59 -13 65 -6 6 -125 10 -304 10 -194 0 -298 4 -305 11 -7 7 -9 124 -8 365 l3 354 135 5 c74 3 143 1 153 -3 12 -5 17 -19 17 -47z m1274 34 c9 -24 7 -687 -2 -702 -6 -9 -86 -13 -321 -17 -205 -3 -318 -9 -327 -16 -7 -6 -14 -32 -16 -57 -2 -35 -7 -48 -20 -50 -17 -3 -18 11 -17 185 1 169 2 185 15 158 46 -98 129 -168 214 -180 153 -21 266 50 310 195 19 62 19 67 2 130 -15 57 -25 73 -79 128 -42 41 -71 62 -86 62 -13 0 -38 5 -55 11 -40 14 -132 -4 -183 -36 -44 -28 -92 -84 -118 -140 l-20 -40 -1 131 c0 111 2 133 16 138 9 3 91 6 184 6 166 0 169 0 176 23 5 12 7 26 5 31 -1 6 0 20 4 33 5 23 7 23 159 23 131 0 155 -2 160 -16z m-766 -472 c2 -326 0 -373 -13 -378 -8 -4 -22 -1 -30 6 -13 11 -15 66 -15 369 0 368 2 386 40 379 13 -3 15 -52 18 -376z m-335 252 c17 -4 48 -20 69 -35 110 -88 103 -259 -15 -337 -36 -24 -50 -27 -122 -26 -77 0 -85 2 -123 33 -51 40 -72 80 -79 151 -4 43 -1 66 15 101 24 51 85 109 116 109 12 0 28 5 36 10 8 6 27 8 43 5 15 -3 42 -8 60 -11z m742 0 c47 -11 105 -63 126 -112 53 -123 -17 -267 -138 -286 -56 -8 -56 9 0 26 58 18 82 37 111 89 35 59 34 116 0 171 -35 54 -56 71 -119 93 -48 16 -54 16 -83 1 -17 -9 -37 -16 -44 -16 -18 -1 -51 -29 -73 -63 -14 -21 -18 -48 -18 -102 0 -70 2 -76 36 -118 27 -33 46 -46 78 -53 56 -12 68 -38 13 -28 -87 15 -151 83 -155 164 -7 111 -2 126 51 180 30 29 60 50 73 50 12 0 29 5 37 10 15 10 45 9 105 -6z m8 -89 c78 -54 74 -173 -6 -220 -121 -72 -253 79 -165 190 41 53 119 66 171 30z m-665 -477 c7 -7 12 -35 12 -63 0 -28 -5 -56 -12 -63 -15 -15 -643 -17 -682 -2 -24 9 -26 15 -26 64 0 42 4 57 18 65 26 16 674 15 690 -1z m1140 0 c7 -7 12 -36 12 -65 0 -41 -4 -54 -19 -63 -21 -11 -677 -15 -705 -4 -20 8 -23 113 -4 132 9 9 102 12 358 12 256 0 349 -3 358 -12z m-843 -313 l0 -170 -60 -3 c-32 -2 -70 0 -83 3 l-23 6 2 157 c1 86 4 163 7 170 3 9 25 12 81 10 l76 -3 0 -170z m-559 119 l119 -7 0 -379 c0 -366 -1 -378 -19 -384 -30 -10 -429 -10 -443 -1 -10 6 -13 95 -13 387 l0 379 58 4 c112 7 180 7 298 1z m334 -376 c0 -211 -4 -389 -9 -396 -5 -9 -26 -12 -67 -10 l-59 3 -3 380 c-1 209 0 386 3 392 3 9 27 13 70 13 l65 0 0 -382z m448 -2 c1 -271 -1 -383 -9 -392 -7 -8 -31 -14 -59 -14 -87 0 -80 -35 -80 394 0 211 3 386 7 390 4 4 37 6 73 4 l65 -3 3 -379z m526 357 c-1 -7 -2 -180 -2 -383 l-2 -370 -227 2 -228 3 -3 383 -2 382 232 -2 c179 -2 233 -6 232 -15z m-746 -365 c-3 -21 -10 -23 -63 -26 -78 -4 -105 3 -105 28 0 18 7 20 86 20 83 0 85 -1 82 -22z m-3 -238 l0 -145 -60 -3 c-108 -6 -104 -12 -103 144 0 156 -4 149 100 149 l63 0 0 -145z m2144 -18 c23 -43 -76 -206 -166 -273 -95 -70 -153 -94 -266 -110 -101 -15 -221 1 -237 31 -6 10 -10 91 -10 179 0 132 3 162 16 175 13 14 58 16 334 16 297 0 320 -1 329 -18z m2344 -13 c22 -36 -110 -230 -210 -310 -65 -51 -158 -109 -174 -109 -6 0 -23 -6 -37 -14 -80 -42 -125 -50 -282 -51 -151 0 -157 1 -250 34 -111 39 -236 119 -307 194 -85 90 -174 240 -158 266 4 8 208 10 707 9 626 -3 702 -5 711 -19z m-5285 -313 c3 -116 -3 -136 -44 -136 -15 0 -44 -21 -83 -58 -50 -50 -60 -65 -71 -115 -11 -47 -11 -67 0 -111 16 -69 83 -149 138 -167 20 -6 43 -16 50 -22 15 -12 17 -163 1 -172 -19 -13 -323 -5 -331 8 -4 7 -8 206 -8 444 0 336 3 432 13 437 6 2 84 4 172 3 l160 -2 3 -109z m1372 -5 c0 -124 -2 -131 -47 -131 -17 0 -91 -55 -113 -85 -27 -36 -49 -99 -49 -145 -1 -87 73 -197 148 -221 58 -19 61 -24 61 -115 0 -60 -4 -84 -12 -84 -7 0 -298 0 -647 0 -499 0 -636 3 -643 12 -4 7 -7 45 -6 83 l3 70 65 33 c177 89 200 301 45 420 -23 17 -50 32 -60 32 -10 0 -27 7 -37 17 -15 14 -18 32 -18 119 0 72 4 104 13 107 6 3 301 6 655 6 l642 1 0 -119z m415 -331 l0 -445 -172 -3 -173 -2 -5 23 c-4 12 -5 50 -3 82 l3 60 67 33 c53 26 74 44 103 87 36 51 38 58 38 134 1 75 -2 84 -32 128 -36 52 -100 103 -130 103 -41 0 -51 25 -51 134 0 56 3 106 7 110 4 3 84 5 177 4 l171 -3 0 -445z m-1691 148 c85 -26 146 -125 127 -208 -22 -98 -88 -155 -180 -155 -105 0 -179 65 -189 165 -13 142 105 239 242 198z m1369 1 c53 -14 114 -79 125 -132 18 -92 -22 -178 -102 -216 -125 -61 -266 28 -266 168 0 131 114 216 243 180z m-1875 -221 c15 -15 17 -330 2 -359 -9 -16 -22 -19 -95 -19 -110 0 -135 -10 -135 -52 0 -61 5 -60 -251 -59 -160 1 -237 6 -247 14 -19 15 -8 92 23 162 48 109 129 189 240 239 47 21 65 27 170 57 84 24 275 35 293 17z m2552 -14 c150 -39 198 -59 275 -110 115 -76 227 -307 171 -353 -9 -8 -84 -11 -252 -9 l-238 3 -9 43 c-10 53 -29 62 -137 62 -68 0 -81 3 -90 19 -15 29 -13 344 3 360 15 16 196 6 277 -15z m815 -297 c49 -65 67 -168 43 -251 -22 -78 -47 -87 -78 -26 -17 34 -20 58 -20 175 0 150 7 164 55 102z m-937 -139 c9 -9 12 -89 12 -299 0 -252 -2 -288 -16 -293 -28 -11 -140 -6 -152 6 -8 8 -12 60 -12 169 0 130 -3 160 -16 173 -14 14 -128 16 -1109 16 -601 0 -1100 -3 -1109 -6 -14 -5 -16 -30 -16 -169 0 -195 0 -195 -95 -195 -99 0 -95 -14 -95 301 0 167 4 278 10 290 11 19 36 19 1298 19 989 0 1291 -3 1300 -12z m-2722 -109 c25 -6 49 -19 54 -29 5 -9 9 -118 8 -241 0 -123 2 -234 6 -247 4 -12 15 -22 25 -22 31 0 42 -22 31 -62 -14 -48 -44 -85 -91 -108 -36 -19 -60 -20 -374 -20 -315 0 -338 1 -375 20 -87 44 -104 111 -98 390 4 174 6 199 25 235 23 43 48 63 103 82 48 16 624 17 686 2z m3489 0 c50 -14 102 -63 115 -109 13 -46 13 -455 0 -499 -12 -42 -43 -77 -92 -102 -34 -18 -62 -19 -375 -19 -332 0 -339 1 -378 23 -43 25 -85 87 -85 128 0 29 15 39 59 39 16 0 40 11 55 25 l27 25 344 0 c228 0 346 4 350 10 4 6 1 17 -5 25 -10 12 -71 15 -359 17 l-346 3 0 50 0 50 346 3 c288 2 349 5 359 17 6 8 9 19 5 25 -4 6 -120 10 -345 10 -186 0 -345 3 -354 6 -12 4 -16 20 -16 54 0 34 4 50 16 54 9 3 168 6 354 6 193 0 341 4 344 9 4 5 3 16 0 25 -5 14 -44 16 -341 16 -211 0 -341 4 -354 10 -26 14 -27 84 -1 99 24 14 625 14 677 0z m-1417 -251 c4 -68 -16 -119 -54 -145 -26 -17 -65 -18 -559 -21 -291 -2 -550 0 -574 3 -29 5 -54 16 -73 35 -26 27 -28 34 -28 109 l0 81 643 -2 642 -3 3 -57z"/> <path d="M8340 8336 c-48 -32 -72 -98 -51 -141 19 -40 38 -58 166 -155 61 -47 146 -114 190 -150 44 -36 134 -107 200 -158 66 -50 135 -105 153 -122 31 -30 41 -50 25 -50 -5 0 -28 -19 -53 -41 -50 -45 -64 -56 -165 -131 -66 -50 -207 -160 -250 -197 -11 -9 -66 -51 -121 -93 -114 -86 -141 -115 -150 -163 -12 -64 49 -135 115 -135 31 0 73 18 91 40 3 3 79 63 170 132 91 70 183 142 205 162 22 19 95 76 162 128 330 252 323 245 323 321 0 51 -13 68 -105 137 -38 30 -72 56 -75 60 -11 12 -157 127 -202 158 -25 18 -52 38 -60 45 -14 14 -160 131 -328 262 -158 124 -178 131 -240 91z m201 -159 c64 -51 174 -137 245 -192 271 -212 450 -353 475 -377 11 -10 19 -25 19 -33 0 -16 -69 -75 -320 -270 -96 -75 -244 -191 -328 -258 -212 -168 -216 -171 -246 -163 -19 5 -26 13 -26 31 0 25 3 27 310 271 36 28 107 83 158 123 51 40 103 80 115 91 12 10 64 51 115 90 60 46 92 77 90 88 -4 19 29 -8 -555 451 -182 142 -233 187 -233 205 0 29 7 36 39 36 17 0 65 -31 142 -93z"/> <path d="M5905 6271 c-55 -22 -84 -44 -105 -79 -45 -74 -37 -152 23 -217 50 -54 110 -71 190 -52 46 10 58 20 117 94 6 7 10 43 10 80 0 64 -2 70 -38 112 -24 28 -55 50 -87 62 -58 22 -58 22 -110 0z m98 -55 c134 -57 101 -246 -43 -246 -136 0 -179 185 -56 241 49 22 58 23 99 5z"/> <path d="M4204 3475 c-3 -8 -3 -19 1 -25 9 -14 721 -14 730 0 4 6 1 17 -5 25 -18 22 -718 22 -726 0z"/> <path d="M4200 3301 c0 -10 7 -22 16 -25 9 -3 167 -6 353 -6 267 0 341 3 356 13 45 34 11 37 -361 37 -350 0 -364 -1 -364 -19z"/> <path d="M4218 3149 c-10 -5 -18 -17 -18 -24 0 -13 53 -15 369 -15 218 0 372 4 376 9 3 5 -5 17 -17 25 -19 14 -69 16 -358 16 -209 0 -342 -4 -352 -11z"/> <path d="M4204 2979 c-3 -6 -2 -15 3 -20 8 -8 285 -12 706 -9 10 0 17 8 17 20 0 20 -7 20 -359 20 -248 0 -362 -3 -367 -11z"/> <path d="M7686 2982 c-2 -4 -1 -14 4 -21 12 -21 708 -21 720 -1 5 8 6 18 4 22 -3 4 -167 8 -364 8 -197 0 -361 -4 -364 -8z"/> </g> </svg> 